<?xml version="1.0" encoding="UTF-8" standalone="no"?>
<!DOCTYPE svg PUBLIC "-//W3C//DTD SVG 1.1//EN"
 "http://www.w3.org/Graphics/SVG/1.1/DTD/svg11.dtd">
<!-- Generated by graphviz version 2.40.1 (20161225.0304)
 -->
<!-- Title: dependencies Pages: 1 -->
<svg width="2341pt" height="284pt"
 viewBox="0.00 0.00 2341.00 284.00" xmlns="http://www.w3.org/2000/svg" xmlns:xlink="http://www.w3.org/1999/xlink">
<g id="graph0" class="graph" transform="scale(1 1) rotate(0) translate(4 280)">
<title>dependencies</title>
<polygon fill="#ffffff" stroke="transparent" points="-4,4 -4,-280 2337,-280 2337,4 -4,4"/>
<text text-anchor="start" x="1145.5091" y="-42.4" font-family="sans-serif" font-weight="bold" font-size="14.00" fill="#000000">Legend</text>
<polygon fill="#ffffb3" stroke="transparent" points="932.5,-10 932.5,-30 952.5,-30 952.5,-10 932.5,-10"/>
<text text-anchor="start" x="956.129" y="-15.4" font-family="sans-serif" font-size="14.00" fill="#000000"> &#160;Declarations</text>
<polygon fill="#8dd3c7" stroke="transparent" points="1045.5,-10 1045.5,-30 1065.5,-30 1065.5,-10 1045.5,-10"/>
<text text-anchor="start" x="1069.2251" y="-15.4" font-family="sans-serif" font-size="14.00" fill="#000000"> &#160;Module</text>
<polygon fill="#80b1d3" stroke="transparent" points="1131.5,-10 1131.5,-30 1151.5,-30 1151.5,-10 1131.5,-10"/>
<text text-anchor="start" x="1155.2812" y="-15.4" font-family="sans-serif" font-size="14.00" fill="#000000"> &#160;Bootstrap</text>
<polygon fill="#fdb462" stroke="transparent" points="1228.5,-10 1228.5,-30 1248.5,-30 1248.5,-10 1228.5,-10"/>
<text text-anchor="start" x="1252.1732" y="-15.4" font-family="sans-serif" font-size="14.00" fill="#000000"> &#160;Providers</text>
<polygon fill="#fb8072" stroke="transparent" points="1324.5,-10 1324.5,-30 1344.5,-30 1344.5,-10 1324.5,-10"/>
<text text-anchor="start" x="1348.2258" y="-15.4" font-family="sans-serif" font-size="14.00" fill="#000000"> &#160;Exports</text>
<g id="clust1" class="cluster">
<title>cluster_AppModule</title>
<polygon fill="none" stroke="#000000" stroke-dasharray="1,5" points="8,-70 8,-268 2325,-268 2325,-70 8,-70"/>
</g>
<g id="clust2" class="cluster">
<title>cluster_AppModule_declarations</title>
<polygon fill="none" stroke="#000000" points="453,-78 453,-130 2317,-130 2317,-78 453,-78"/>
</g>
<g id="clust17" class="cluster">
<title>cluster_AppModule_bootstrap</title>
<polygon fill="none" stroke="#000000" points="1079,-208 1079,-260 1203,-260 1203,-208 1079,-208"/>
</g>
<g id="clust18" class="cluster">
<title>cluster_AppModule_providers</title>
<polygon fill="none" stroke="#000000" points="16,-78 16,-130 445,-130 445,-78 16,-78"/>
</g>
<!-- AppComponent -->
<g id="node1" class="node">
<title>AppComponent</title>
<polygon fill="#ffffb3" stroke="#000000" points="2308.9399,-122 2203.0601,-122 2203.0601,-86 2308.9399,-86 2308.9399,-122"/>
<text text-anchor="middle" x="2256" y="-99.8" font-family="Times,serif" font-size="14.00" fill="#000000">AppComponent</text>
</g>
<!-- AppModule -->
<g id="node13" class="node">
<title>AppModule</title>
<polygon fill="#8dd3c7" stroke="#000000" points="1182.6571,-187 1179.6571,-191 1158.6571,-191 1155.6571,-187 1099.3429,-187 1099.3429,-151 1182.6571,-151 1182.6571,-187"/>
<text text-anchor="middle" x="1141" y="-164.8" font-family="Times,serif" font-size="14.00" fill="#000000">AppModule</text>
</g>
<!-- AppComponent&#45;&gt;AppModule -->
<g id="edge1" class="edge">
<title>AppComponent&#45;&gt;AppModule</title>
<path fill="none" stroke="#000000" d="M2256,-122.3228C2256,-145.6602 2256,-183 2256,-183 2256,-183 1192.6743,-183 1192.6743,-183"/>
<polygon fill="#000000" stroke="#000000" points="1192.6744,-179.5001 1182.6743,-183 1192.6743,-186.5001 1192.6744,-179.5001"/>
</g>
<!-- HomeComponent -->
<g id="node2" class="node">
<title>HomeComponent</title>
<polygon fill="#ffffb3" stroke="#000000" points="2185.5451,-122 2070.4549,-122 2070.4549,-86 2185.5451,-86 2185.5451,-122"/>
<text text-anchor="middle" x="2128" y="-99.8" font-family="Times,serif" font-size="14.00" fill="#000000">HomeComponent</text>
</g>
<!-- HomeComponent&#45;&gt;AppModule -->
<g id="edge2" class="edge">
<title>HomeComponent&#45;&gt;AppModule</title>
<path fill="none" stroke="#000000" d="M2128,-122.2921C2128,-144.2057 2128,-178 2128,-178 2128,-178 1192.7797,-178 1192.7797,-178"/>
<polygon fill="#000000" stroke="#000000" points="1192.7798,-174.5001 1182.7797,-178 1192.7797,-181.5001 1192.7798,-174.5001"/>
</g>
<!-- ListsComponent -->
<g id="node3" class="node">
<title>ListsComponent</title>
<polygon fill="#ffffb3" stroke="#000000" points="2052.0563,-122 1943.9437,-122 1943.9437,-86 2052.0563,-86 2052.0563,-122"/>
<text text-anchor="middle" x="1998" y="-99.8" font-family="Times,serif" font-size="14.00" fill="#000000">ListsComponent</text>
</g>
<!-- ListsComponent&#45;&gt;AppModule -->
<g id="edge3" class="edge">
<title>ListsComponent&#45;&gt;AppModule</title>
<path fill="none" stroke="#000000" d="M1998,-122.0267C1998,-142.7672 1998,-174 1998,-174 1998,-174 1192.915,-174 1192.915,-174"/>
<polygon fill="#000000" stroke="#000000" points="1192.9151,-170.5001 1182.915,-174 1192.915,-177.5001 1192.9151,-170.5001"/>
</g>
<!-- MemberCardComponent -->
<g id="node4" class="node">
<title>MemberCardComponent</title>
<polygon fill="#ffffb3" stroke="#000000" points="1925.9692,-122 1770.0308,-122 1770.0308,-86 1925.9692,-86 1925.9692,-122"/>
<text text-anchor="middle" x="1848" y="-99.8" font-family="Times,serif" font-size="14.00" fill="#000000">MemberCardComponent</text>
</g>
<!-- MemberCardComponent&#45;&gt;AppModule -->
<g id="edge4" class="edge">
<title>MemberCardComponent&#45;&gt;AppModule</title>
<path fill="none" stroke="#000000" d="M1848,-122.1061C1848,-141.3391 1848,-169 1848,-169 1848,-169 1192.8473,-169 1192.8473,-169"/>
<polygon fill="#000000" stroke="#000000" points="1192.8474,-165.5001 1182.8473,-169 1192.8473,-172.5001 1192.8474,-165.5001"/>
</g>
<!-- MemberDetailComponent -->
<g id="node5" class="node">
<title>MemberDetailComponent</title>
<polygon fill="#ffffb3" stroke="#000000" points="1752.465,-122 1589.535,-122 1589.535,-86 1752.465,-86 1752.465,-122"/>
<text text-anchor="middle" x="1671" y="-99.8" font-family="Times,serif" font-size="14.00" fill="#000000">MemberDetailComponent</text>
</g>
<!-- MemberDetailComponent&#45;&gt;AppModule -->
<g id="edge5" class="edge">
<title>MemberDetailComponent&#45;&gt;AppModule</title>
<path fill="none" stroke="#000000" d="M1671,-122.302C1671,-140.2699 1671,-165 1671,-165 1671,-165 1193.0312,-165 1193.0312,-165"/>
<polygon fill="#000000" stroke="#000000" points="1193.0313,-161.5001 1183.0312,-165 1193.0312,-168.5001 1193.0313,-161.5001"/>
</g>
<!-- MemberEditComponent -->
<g id="node6" class="node">
<title>MemberEditComponent</title>
<polygon fill="#ffffb3" stroke="#000000" points="1571.0912,-122 1418.9088,-122 1418.9088,-86 1571.0912,-86 1571.0912,-122"/>
<text text-anchor="middle" x="1495" y="-99.8" font-family="Times,serif" font-size="14.00" fill="#000000">MemberEditComponent</text>
</g>
<!-- MemberEditComponent&#45;&gt;AppModule -->
<g id="edge6" class="edge">
<title>MemberEditComponent&#45;&gt;AppModule</title>
<path fill="none" stroke="#000000" d="M1495,-122.027C1495,-138.3976 1495,-160 1495,-160 1495,-160 1192.9986,-160 1192.9986,-160"/>
<polygon fill="#000000" stroke="#000000" points="1192.9986,-156.5001 1182.9986,-160 1192.9985,-163.5001 1192.9986,-156.5001"/>
</g>
<!-- MemberListComponent -->
<g id="node7" class="node">
<title>MemberListComponent</title>
<polygon fill="#ffffb3" stroke="#000000" points="1401.0365,-122 1250.9635,-122 1250.9635,-86 1401.0365,-86 1401.0365,-122"/>
<text text-anchor="middle" x="1326" y="-99.8" font-family="Times,serif" font-size="14.00" fill="#000000">MemberListComponent</text>
</g>
<!-- MemberListComponent&#45;&gt;AppModule -->
<g id="edge7" class="edge">
<title>MemberListComponent&#45;&gt;AppModule</title>
<path fill="none" stroke="#000000" d="M1326,-122.1871C1326,-137.1824 1326,-156 1326,-156 1326,-156 1192.9794,-156 1192.9794,-156"/>
<polygon fill="#000000" stroke="#000000" points="1192.9794,-152.5001 1182.9794,-156 1192.9793,-159.5001 1192.9794,-152.5001"/>
</g>
<!-- MemberMessagesComponent -->
<g id="node8" class="node">
<title>MemberMessagesComponent</title>
<polygon fill="#ffffb3" stroke="#000000" points="1232.6797,-122 1049.3203,-122 1049.3203,-86 1232.6797,-86 1232.6797,-122"/>
<text text-anchor="middle" x="1141" y="-99.8" font-family="Times,serif" font-size="14.00" fill="#000000">MemberMessagesComponent</text>
</g>
<!-- MemberMessagesComponent&#45;&gt;AppModule -->
<g id="edge8" class="edge">
<title>MemberMessagesComponent&#45;&gt;AppModule</title>
<path fill="none" stroke="#000000" d="M1141,-122.1061C1141,-122.1061 1141,-140.991 1141,-140.991"/>
<polygon fill="#000000" stroke="#000000" points="1137.5001,-140.9909 1141,-150.991 1144.5001,-140.991 1137.5001,-140.9909"/>
</g>
<!-- MessagesComponent -->
<g id="node9" class="node">
<title>MessagesComponent</title>
<polygon fill="#ffffb3" stroke="#000000" points="1031.7548,-122 896.2452,-122 896.2452,-86 1031.7548,-86 1031.7548,-122"/>
<text text-anchor="middle" x="964" y="-99.8" font-family="Times,serif" font-size="14.00" fill="#000000">MessagesComponent</text>
</g>
<!-- MessagesComponent&#45;&gt;AppModule -->
<g id="edge9" class="edge">
<title>MessagesComponent&#45;&gt;AppModule</title>
<path fill="none" stroke="#000000" d="M964,-122.1871C964,-137.1824 964,-156 964,-156 964,-156 1089.0535,-156 1089.0535,-156"/>
<polygon fill="#000000" stroke="#000000" points="1089.0535,-159.5001 1099.0535,-156 1089.0534,-152.5001 1089.0535,-159.5001"/>
</g>
<!-- NavComponent -->
<g id="node10" class="node">
<title>NavComponent</title>
<polygon fill="#ffffb3" stroke="#000000" points="878.1542,-122 773.8458,-122 773.8458,-86 878.1542,-86 878.1542,-122"/>
<text text-anchor="middle" x="826" y="-99.8" font-family="Times,serif" font-size="14.00" fill="#000000">NavComponent</text>
</g>
<!-- NavComponent&#45;&gt;AppModule -->
<g id="edge10" class="edge">
<title>NavComponent&#45;&gt;AppModule</title>
<path fill="none" stroke="#000000" d="M826,-122.027C826,-138.3976 826,-160 826,-160 826,-160 1089.1704,-160 1089.1704,-160"/>
<polygon fill="#000000" stroke="#000000" points="1089.1705,-163.5001 1099.1704,-160 1089.1704,-156.5001 1089.1705,-163.5001"/>
</g>
<!-- PhotoEditorComponent -->
<g id="node11" class="node">
<title>PhotoEditorComponent</title>
<polygon fill="#ffffb3" stroke="#000000" points="755.5,-122 606.5,-122 606.5,-86 755.5,-86 755.5,-122"/>
<text text-anchor="middle" x="681" y="-99.8" font-family="Times,serif" font-size="14.00" fill="#000000">PhotoEditorComponent</text>
</g>
<!-- PhotoEditorComponent&#45;&gt;AppModule -->
<g id="edge11" class="edge">
<title>PhotoEditorComponent&#45;&gt;AppModule</title>
<path fill="none" stroke="#000000" d="M681,-122.302C681,-140.2699 681,-165 681,-165 681,-165 1088.9586,-165 1088.9586,-165"/>
<polygon fill="#000000" stroke="#000000" points="1088.9587,-168.5001 1098.9586,-165 1088.9586,-161.5001 1088.9587,-168.5001"/>
</g>
<!-- RegisterComponent -->
<g id="node12" class="node">
<title>RegisterComponent</title>
<polygon fill="#ffffb3" stroke="#000000" points="588.9846,-122 461.0154,-122 461.0154,-86 588.9846,-86 588.9846,-122"/>
<text text-anchor="middle" x="525" y="-99.8" font-family="Times,serif" font-size="14.00" fill="#000000">RegisterComponent</text>
</g>
<!-- RegisterComponent&#45;&gt;AppModule -->
<g id="edge12" class="edge">
<title>RegisterComponent&#45;&gt;AppModule</title>
<path fill="none" stroke="#000000" d="M525,-122.1061C525,-141.3391 525,-169 525,-169 525,-169 1089.1441,-169 1089.1441,-169"/>
<polygon fill="#000000" stroke="#000000" points="1089.1441,-172.5001 1099.1441,-169 1089.1441,-165.5001 1089.1441,-172.5001"/>
</g>
<!-- AppComponent  -->
<g id="node14" class="node">
<title>AppComponent </title>
<polygon fill="#80b1d3" stroke="#000000" points="1195.439,-252 1086.561,-252 1086.561,-216 1195.439,-216 1195.439,-252"/>
<text text-anchor="middle" x="1141" y="-229.8" font-family="Times,serif" font-size="14.00" fill="#000000">AppComponent </text>
</g>
<!-- AppModule&#45;&gt;AppComponent  -->
<g id="edge13" class="edge">
<title>AppModule&#45;&gt;AppComponent </title>
<path fill="none" stroke="#000000" stroke-dasharray="1,5" d="M1141,-187.1061C1141,-187.1061 1141,-205.991 1141,-205.991"/>
<polygon fill="#000000" stroke="#000000" points="1137.5001,-205.9909 1141,-215.991 1144.5001,-205.991 1137.5001,-205.9909"/>
</g>
<!-- AlertifyService -->
<g id="node15" class="node">
<title>AlertifyService</title>
<ellipse fill="#fdb462" stroke="#000000" cx="366" cy="-104" rx="70.6181" ry="18"/>
<text text-anchor="middle" x="366" y="-99.8" font-family="Times,serif" font-size="14.00" fill="#000000">AlertifyService</text>
</g>
<!-- AlertifyService&#45;&gt;AppModule -->
<g id="edge14" class="edge">
<title>AlertifyService&#45;&gt;AppModule</title>
<path fill="none" stroke="#000000" d="M366,-122.0267C366,-142.7672 366,-174 366,-174 366,-174 1089.3326,-174 1089.3326,-174"/>
<polygon fill="#000000" stroke="#000000" points="1089.3327,-177.5001 1099.3326,-174 1089.3326,-170.5001 1089.3327,-177.5001"/>
</g>
<!-- AuthService -->
<g id="node16" class="node">
<title>AuthService</title>
<ellipse fill="#fdb462" stroke="#000000" cx="218" cy="-104" rx="59.1083" ry="18"/>
<text text-anchor="middle" x="218" y="-99.8" font-family="Times,serif" font-size="14.00" fill="#000000">AuthService</text>
</g>
<!-- AuthService&#45;&gt;AppModule -->
<g id="edge15" class="edge">
<title>AuthService&#45;&gt;AppModule</title>
<path fill="none" stroke="#000000" d="M218,-122.2921C218,-144.2057 218,-178 218,-178 218,-178 1089.2453,-178 1089.2453,-178"/>
<polygon fill="#000000" stroke="#000000" points="1089.2454,-181.5001 1099.2453,-178 1089.2453,-174.5001 1089.2454,-181.5001"/>
</g>
<!-- UserService -->
<g id="node17" class="node">
<title>UserService</title>
<ellipse fill="#fdb462" stroke="#000000" cx="82" cy="-104" rx="58.4415" ry="18"/>
<text text-anchor="middle" x="82" y="-99.8" font-family="Times,serif" font-size="14.00" fill="#000000">UserService</text>
</g>
<!-- UserService&#45;&gt;AppModule -->
<g id="edge16" class="edge">
<title>UserService&#45;&gt;AppModule</title>
<path fill="none" stroke="#000000" d="M82,-122.3228C82,-145.6602 82,-183 82,-183 82,-183 1089.1598,-183 1089.1598,-183"/>
<polygon fill="#000000" stroke="#000000" points="1089.1598,-186.5001 1099.1598,-183 1089.1597,-179.5001 1089.1598,-186.5001"/>
</g>
</g>
</svg>
